# xmcd CD database file
#
# Track frame offsets:
#	150
#	15965
#	29980
#	43565
#	58790
#	75142
#	92097
#	103100
#	117727
#	134107
#	144610
#	157467
#	172632
#	187430
#	201860
#	215337
#	232850
#	244035
#	257550
#	274037
#
# Disc length: 3819 seconds
#
# Revision: 0
# Processed by: cddbd v1.5.1PL0 Copyright (c) Steve Scherf et al.
# Submitted via: CD2WAV32(EN) R3.19
#
DISCID=240ee914
DTITLE=Olivia Newton-John - Best Now
DYEAR=1900
DGENRE=
TTITLE0=Have You Never been Mellow
TTITLE1=It's so Easy
TTITLE2=Follow Me
TTITLE3=Please Mr. Please
TTITLE4=I Honestly Love You
TTITLE5=Me and Bobby McGee
TTITLE6=If
TTITLE7=Bank of the Ohio
TTITLE8=Love Song
TTITLE9=Help Me Make it Through the Night
TTITLE10=If not for You
TTITLE11=What is Life
TTITLE12=Take Me Home Country Roads
TTITLE13=If You Love Me (Let Me Know)
TTITLE14=Let Me be There
TTITLE15=Angel of the Morning
TTITLE16=Changes
TTITLE17=Everything I Own
TTITLE18=If You Could Read My Mind
TTITLE19=Long Live Love
EXTD=
EXTT0=
EXTT1=
EXTT2=
EXTT3=
EXTT4=
EXTT5=
EXTT6=
EXTT7=
EXTT8=
EXTT9=
EXTT10=
EXTT11=
EXTT12=
EXTT13=
EXTT14=
EXTT15=
EXTT16=
EXTT17=
EXTT18=
EXTT19=
PLAYORDER=
